<svg width="24" height="24" fill="none" xmlns="http://www.w3.org/2000/svg"><path d="M.453 7.11 7.383.18l.99.99L5.5 8.1l.05.049 4.9-4.9.891.89-6.93 6.93-.99-.99 2.871-6.93-.05-.049-4.9 4.9-.89-.89Zm5.346 5.346 6.93-6.93 3.365 3.366-.693.693-2.475-2.475-2.276 2.277 2.177 2.178-.693.693-2.177-2.178-2.574 2.574 2.475 2.475-.693.693-3.366-3.366Zm5.1 5.1 5.791-8.068.891.89-4.455 6.237.05.05 5.148-2.97.89.891-2.97 5.148.05.05 6.237-4.455.89.89-8.067 5.792-1.09-1.09 3.04-5.276-.04-.04-5.276 3.04-1.089-1.09Z" fill="#fff"/></svg>